<svg xmlns="http://www.w3.org/2000/svg" version="1.1" xmlns:xlink="http://www.w3.org/1999/xlink" xmlns:svgjs="http://svgjs.dev/svgjs" width="150" height="150" viewBox="0 0 1000 750"><rect width="1000" height="750" fill="#ffa96a"></rect><g transform="matrix(0.834,0,0,0.834,82.49454545454546,115.4193570850203)"><svg viewBox="0 0 396 247" data-background-color="#ffa96a" preserveAspectRatio="xMidYMid meet" height="623" width="1000" xmlns="http://www.w3.org/2000/svg" xmlns:xlink="http://www.w3.org/1999/xlink"><g id="tight-bounds" transform="matrix(1,0,0,1,0.2400000000000091,-0.09999999999999432)"><svg viewBox="0 0 395.52 247.2" height="247.2" width="395.52"><g><svg></svg></g><g><svg viewBox="0 0 395.52 247.2" height="247.2" width="395.52"><g transform="matrix(1,0,0,1,106.96968474970896,47.215199999999996)"><svg viewBox="0 0 181.58063050058206 152.7696" height="152.7696" width="181.58063050058206"><g><svg viewBox="0 0 181.58063050058206 152.7696" height="152.7696" width="181.58063050058206"><g><svg viewBox="0 0 181.58063050058206 152.7696" height="152.7696" width="181.58063050058206"><g><svg viewBox="0 0 181.58063050058206 152.7696" height="152.7696" width="181.58063050058206"><g><svg viewBox="0 0 181.58063050058206 152.7696" height="152.7696" width="181.58063050058206"><g><svg viewBox="0 0 181.58063050058206 152.7696" height="152.7696" width="181.58063050058206"><g transform="matrix(1,0,0,1,0,0)"><svg width="181.58063050058206" viewBox="1.9000000953674316 -42.95000076293945 51.03999710083008 42.95000076293945" height="152.7696" data-palette-color="#f8db5e"><path d="M10.55 0L1.9 0 1.9-42.95 19.1-42.95 19.1-34.6 10.55-34.6 10.55-27.75 18.65-27.75 18.65-19.5 10.55-19.5 10.55 0ZM30.05 0L21.3 0 21.3-7.3 30.05-7.3 30.05 0ZM41.5 0L32.74 0 32.74-7.3 41.5-7.3 41.5 0ZM52.94 0L44.19 0 44.19-7.3 52.94-7.3 52.94 0Z" opacity="1" transform="matrix(1,0,0,1,0,0)" fill="#f8db5e" class="undefined-text-0" data-fill-palette-color="primary" id="text-0"></path></svg></g></svg></g></svg></g></svg></g></svg></g></svg></g></svg></g><path d="M289.271 41.215L289.271 0 42.071 0 42.071 247.2 289.271 247.2 289.271 205.985 275.494 205.985 275.494 233.423 55.848 233.423 55.848 13.777 275.494 13.777 275.494 41.215Z" fill="#f8db5e" stroke="transparent" data-fill-palette-color="primary"></path></svg></g><defs></defs></svg><rect width="395.52" height="247.2" fill="none" stroke="none" visibility="hidden"></rect></g></svg></g></svg>